<svg viewBox="0 0 206 64" fill="none" xmlns="http://www.w3.org/2000/svg">
<path d="M94.2066 27H99.2746C104.707 27 108.011 23.836 108.011 17.76C108.011 11.712 104.707 8.688 99.1066 8.688H94.2066V27ZM97.4546 24.368V11.32H98.8826C102.579 11.32 104.679 13.28 104.679 17.76C104.679 22.268 102.579 24.368 98.8826 24.368H97.4546ZM117.307 27.336C119.043 27.336 120.695 26.72 122.011 25.852L120.919 23.836C119.911 24.48 118.903 24.844 117.727 24.844C115.515 24.844 113.947 23.444 113.667 21.008H122.403C122.487 20.672 122.543 20.056 122.543 19.44C122.543 15.604 120.583 12.916 116.859 12.916C113.639 12.916 110.531 15.66 110.531 20.14C110.531 24.676 113.499 27.336 117.307 27.336ZM113.639 18.824C113.919 16.612 115.319 15.408 116.943 15.408C118.819 15.408 119.743 16.696 119.743 18.824H113.639ZM131.358 27.336C132.926 27.336 134.55 26.776 135.838 25.656L134.522 23.528C133.738 24.172 132.758 24.704 131.694 24.704C129.538 24.704 128.026 22.884 128.026 20.14C128.026 17.368 129.566 15.548 131.778 15.548C132.646 15.548 133.346 15.912 134.074 16.556L135.642 14.456C134.634 13.588 133.374 12.916 131.61 12.916C127.942 12.916 124.722 15.548 124.722 20.14C124.722 24.704 127.606 27.336 131.358 27.336ZM138.552 27H141.772V18.6C142.612 16.528 143.928 15.772 145.02 15.772C145.608 15.772 145.972 15.856 146.448 15.996L147.008 13.196C146.588 13 146.14 12.916 145.44 12.916C143.984 12.916 142.528 13.896 141.548 15.688H141.436L141.212 13.252H138.552V27ZM154.603 27.336C156.339 27.336 157.991 26.72 159.307 25.852L158.215 23.836C157.207 24.48 156.199 24.844 155.023 24.844C152.811 24.844 151.243 23.444 150.963 21.008H159.699C159.783 20.672 159.839 20.056 159.839 19.44C159.839 15.604 157.879 12.916 154.155 12.916C150.935 12.916 147.827 15.66 147.827 20.14C147.827 24.676 150.795 27.336 154.603 27.336ZM150.935 18.824C151.215 16.612 152.615 15.408 154.239 15.408C156.115 15.408 157.039 16.696 157.039 18.824H150.935ZM167.731 27.336C169.215 27.336 170.615 26.524 171.623 25.516H171.735L171.959 27H174.619V7.232H171.399V12.216L171.511 14.428C170.447 13.504 169.467 12.916 167.899 12.916C164.903 12.916 162.075 15.66 162.075 20.14C162.075 24.676 164.287 27.336 167.731 27.336ZM168.515 24.676C166.527 24.676 165.407 23.08 165.407 20.112C165.407 17.228 166.835 15.576 168.599 15.576C169.523 15.576 170.447 15.884 171.399 16.724V23.136C170.475 24.2 169.579 24.676 168.515 24.676Z" fill="#091440"/>
<path d="M101.319 54.7646C106.107 54.7646 109.411 51.1246 109.411 45.1886C109.411 39.2806 106.107 35.7806 101.319 35.7806C96.5586 35.7806 93.2546 39.2806 93.2546 45.1886C93.2546 51.1246 96.5586 54.7646 101.319 54.7646ZM101.319 51.9366C98.4346 51.9366 96.5866 49.3046 96.5866 45.1886C96.5866 41.1006 98.4346 38.6086 101.319 38.6086C104.203 38.6086 106.051 41.1006 106.051 45.1886C106.051 49.3046 104.203 51.9366 101.319 51.9366ZM112.794 54.4286H116.014V44.8246C117.162 43.7046 117.946 43.1166 119.15 43.1166C120.662 43.1166 121.306 43.9566 121.306 46.2246V54.4286H124.526V45.8046C124.526 42.3326 123.238 40.3446 120.298 40.3446C118.422 40.3446 117.022 41.3246 115.79 42.5286H115.678L115.454 40.6806H112.794V54.4286ZM141.655 54.7646C144.007 54.7646 145.939 53.8126 147.423 52.1046L145.687 50.0606C144.651 51.1806 143.391 51.9366 141.767 51.9366C138.687 51.9366 136.727 49.4166 136.727 45.2446C136.727 41.1286 138.855 38.6086 141.851 38.6086C143.279 38.6086 144.371 39.2526 145.323 40.2046L147.059 38.1046C145.911 36.8726 144.063 35.7806 141.767 35.7806C137.147 35.7806 133.395 39.3366 133.395 45.3286C133.395 51.4046 137.035 54.7646 141.655 54.7646ZM150.2 54.4286H153.42V44.8246C154.568 43.7046 155.352 43.1166 156.556 43.1166C158.068 43.1166 158.712 43.9566 158.712 46.2246V54.4286H161.932V45.8046C161.932 42.3326 160.644 40.3446 157.704 40.3446C155.828 40.3446 154.456 41.3246 153.308 42.4166L153.42 39.7566V34.6606H150.2V54.4286ZM169.145 54.7646C170.769 54.7646 172.169 53.9526 173.401 52.9166H173.513L173.737 54.4286H176.397V46.2806C176.397 42.4446 174.689 40.3446 171.273 40.3446C169.089 40.3446 167.129 41.1846 165.617 42.1366L166.793 44.2926C168.025 43.5646 169.313 42.9486 170.657 42.9486C172.533 42.9486 173.121 44.1806 173.177 45.6366C167.521 46.2526 165.085 47.7926 165.085 50.7326C165.085 53.1406 166.737 54.7646 169.145 54.7646ZM170.181 52.2446C169.033 52.2446 168.193 51.7126 168.193 50.4806C168.193 49.1086 169.425 48.1286 173.177 47.6526V50.7326C172.141 51.6846 171.301 52.2446 170.181 52.2446ZM180.251 54.4286H183.471V40.6806H180.251V54.4286ZM181.875 38.2726C183.023 38.2726 183.863 37.5166 183.863 36.4526C183.863 35.3606 183.023 34.6046 181.875 34.6046C180.727 34.6046 179.887 35.3606 179.887 36.4526C179.887 37.5166 180.727 38.2726 181.875 38.2726ZM187.579 54.4286H190.799V44.8246C191.947 43.7046 192.731 43.1166 193.935 43.1166C195.447 43.1166 196.091 43.9566 196.091 46.2246V54.4286H199.311V45.8046C199.311 42.3326 198.023 40.3446 195.083 40.3446C193.207 40.3446 191.807 41.3246 190.575 42.5286H190.463L190.239 40.6806H187.579V54.4286Z" fill="#091440"/>
<path d="M78.4792 7.36011V54.6405" stroke="#091440" stroke-linecap="round"/>
<path d="M47.2202 43.7882L59.3703 55.9384H47.4216L27.3951 35.9119H39.7914C42.4619 35.9119 45.023 34.851 46.9114 32.9627C48.7997 31.0743 49.8606 28.5132 49.8606 25.8427C49.8606 23.1722 48.7997 20.611 46.9114 18.7227C45.023 16.8343 42.4619 15.7735 39.7914 15.7735H35.6742L25.7393 5.8833H39.3215C44.6393 5.88318 49.7414 7.98646 53.5142 11.7341C57.287 15.4818 59.4244 20.5697 59.4599 25.8874C59.6592 29.7993 58.5699 33.6687 56.3591 36.9021C54.1482 40.1355 50.9378 42.5545 47.2202 43.7882Z" fill="#091440"/>
<path d="M12.2688 18.0111L0.141029 5.8833H12.0674L32.2058 25.8874H19.6976C17.0271 25.8874 14.466 26.9483 12.5776 28.8366C10.6893 30.725 9.62844 33.2861 9.62844 35.9566C9.62844 38.6271 10.6893 41.1883 12.5776 43.0766C14.466 44.9649 17.0271 46.0258 19.6976 46.0258H23.7253L33.7497 56.0502H20.1675C14.8458 56.0503 9.74043 53.944 5.96695 50.1915C2.19348 46.4389 0.058714 41.3454 0.029149 36.0237C-0.195385 32.0932 0.882085 28.1983 3.09474 24.942C5.3074 21.6858 8.53182 19.2497 12.2688 18.0111Z" fill="#091440"/>
</svg>
