<svg viewBox="0 0 44 41" fill="none" xmlns="http://www.w3.org/2000/svg">
<path d="M12.3887 35.7781C12.3887 38.3542 14.4659 40.4449 17.0254 40.4449C19.5848 40.4449 21.662 38.3542 21.662 35.7781C21.662 33.202 19.5972 31.1113 17.0254 31.1113C14.4659 31.1113 12.3887 33.202 12.3887 35.7781ZM18.5709 35.7781C18.5709 36.6368 17.8785 37.3337 17.0254 37.3337C16.1722 37.3337 15.4798 36.6368 15.4798 35.7781C15.4798 34.9194 16.1722 34.2225 17.0254 34.2225C17.8785 34.2225 18.5709 34.9194 18.5709 35.7781Z" fill="#091440"/>
<path d="M17.026 37.3338C17.8796 37.3338 18.5716 36.6374 18.5716 35.7783C18.5716 34.9191 17.8796 34.2227 17.026 34.2227C16.1724 34.2227 15.4805 34.9191 15.4805 35.7783C15.4805 36.6374 16.1724 37.3338 17.026 37.3338Z" fill="#C4CBD2"/>
<path d="M27.8457 35.7781C27.8457 38.3542 29.9229 40.4449 32.4824 40.4449C35.0418 40.4449 37.1191 38.3542 37.1191 35.7781C37.1191 33.202 35.0542 31.1113 32.4824 31.1113C29.9229 31.1113 27.8457 33.202 27.8457 35.7781ZM34.0279 35.7781C34.0279 36.6368 33.3355 37.3337 32.4824 37.3337C31.6292 37.3337 30.9368 36.6368 30.9368 35.7781C30.9368 34.9194 31.6292 34.2225 32.4824 34.2225C33.3355 34.2225 34.0279 34.9194 34.0279 35.7781Z" fill="#091440"/>
<path d="M32.4811 37.3338C33.3347 37.3338 34.0267 36.6374 34.0267 35.7783C34.0267 34.9191 33.3347 34.2227 32.4811 34.2227C31.6275 34.2227 30.9355 34.9191 30.9355 35.7783C30.9355 36.6374 31.6275 37.3338 32.4811 37.3338Z" fill="#C4CBD2"/>
<path d="M0 3.11119H5.40329L9.31047 28.0007H40.2217L43.3128 6.22238H8.97662L7.99983 0H0V3.11119Z" fill="#091440"/>
<path d="M30.1331 20.9811L33.9785 24.8763H29.824L23.6788 18.6539H27.8209C28.637 18.6539 29.416 18.3303 29.9971 17.7454C30.5782 17.1605 30.8997 16.3765 30.8997 15.5427C30.8997 14.7089 30.5782 13.9249 29.9971 13.34C29.416 12.7551 28.6494 12.4315 27.8209 12.4315H26.2877L23.209 9.32031H27.8209C31.2212 9.32031 33.9661 12.1079 33.9661 15.5427C33.9661 18.0565 32.742 20.085 30.1331 20.9811Z" fill="#C4CBD2"/>
<path d="M19.3629 13.2038L15.5176 9.30859H19.672L25.8172 15.531H21.6627C20.8467 15.531 20.0677 15.8545 19.4866 16.4394C18.9055 17.0243 18.584 17.8084 18.584 18.6422C18.584 19.476 18.9055 20.26 19.4866 20.8449C20.0677 21.4298 20.8343 21.7534 21.6627 21.7534H23.1959L26.2747 24.8645H21.6627C18.2625 24.8645 15.5176 22.0769 15.5176 18.6422C15.5176 16.1159 16.754 14.0874 19.3629 13.2038Z" fill="#C4CBD2"/>
</svg>
