<svg viewBox="0 0 33 43" fill="none" xmlns="http://www.w3.org/2000/svg">
<path d="M26.2019 30.2214C29.3079 30.2214 31.8658 27.8678 32.2097 24.8478H32.2527V8.06048C30.028 8.06048 28.2224 9.86603 28.2224 12.0907C28.2224 12.1122 28.2224 12.1445 28.2224 12.166L28.2117 18.8185C28.2117 19.3774 27.7603 19.8288 27.2014 19.8288C26.6533 19.8288 26.2127 19.3989 26.1912 18.8615V18.8185V4.53537C26.1912 3.14896 25.0627 2.02049 23.6763 2.02049C22.2899 2.02049 21.1615 3.14896 21.1615 4.53537V13.4341V13.4449C21.1507 13.993 20.7101 14.4444 20.1512 14.4444C19.6031 14.4444 19.1517 14.0037 19.141 13.4449V13.4341V2.51487C19.141 1.12847 18.0125 0 16.6261 0C15.2397 0 14.1112 1.12847 14.1112 2.51487V13.4341C14.1112 13.993 13.6598 14.4336 13.101 14.4336C12.5421 14.4336 12.0907 13.9823 12.0907 13.4341V7.51237V2.51487C12.0907 1.12847 10.9623 0 9.57586 0C8.17871 0 7.05024 1.12847 7.05024 2.51487V13.4341C7.05024 13.993 6.59885 14.4336 6.03999 14.4336C5.48113 14.4336 5.02974 13.9823 5.02974 13.4341V6.55586C5.02974 5.16946 3.90127 4.04099 2.51487 4.04099C1.12847 4.03024 0 5.15871 0 6.54511V42.9893L26.1912 43L26.2019 30.2214Z" fill="#091440"/>
<path d="M13.4332 16.1211C8.24224 16.1211 4.0293 20.334 4.0293 25.525C4.0293 30.7159 8.24224 34.9289 13.4332 34.9289C18.6241 34.9289 22.8371 30.7159 22.8371 25.525C22.8371 20.334 18.6241 16.1211 13.4332 16.1211Z" fill="#C4CBD2"/>
<path d="M16.9053 27.8783L19.2375 30.2213H16.7226L13.004 26.4812H15.5189C16.0133 26.4812 16.4862 26.2877 16.8301 25.9331C17.1847 25.5784 17.3782 25.1055 17.3782 24.6112C17.3782 24.106 17.1847 23.6439 16.8301 23.2892C16.4754 22.9346 16.0133 22.7411 15.5189 22.7411H14.5839L12.7246 20.8711H15.5189C17.5716 20.8711 19.2375 22.5477 19.2375 24.6112C19.2267 26.1158 18.4852 27.341 16.9053 27.8783Z" fill="#091440"/>
<path d="M10.3927 23.1935L8.06055 20.8613H10.5754L14.294 24.6014H11.7791C11.2847 24.6014 10.8119 24.7948 10.4679 25.1495C10.1133 25.5042 9.91983 25.977 9.91983 26.4714C9.91983 26.9765 10.1133 27.4387 10.4679 27.7933C10.8226 28.148 11.2847 28.3415 11.7791 28.3415H12.7141L14.5734 30.2115H11.7791C9.72638 30.2115 8.06055 28.5349 8.06055 26.4714C8.06055 24.9561 8.80211 23.7309 10.3927 23.1935Z" fill="#091440"/>
</svg>
