<svg viewBox="0 0 40 43" fill="none" xmlns="http://www.w3.org/2000/svg">
<path d="M2.85714 0H37.1428C38.7199 0 39.9999 1.28 39.9999 2.85714V34.2856C39.9999 35.8628 38.7199 37.1428 37.1428 37.1428H2.85714C1.28 37.1428 0 35.8628 0 34.2856V2.85714C0 1.28 1.28 0 2.85714 0Z" fill="#091440"/>
<path d="M2.85714 2.85742H37.1428C38.7199 2.85742 39.9999 4.13742 39.9999 5.71456V37.1431C39.9999 38.7202 38.7199 40.0002 37.1428 40.0002H2.85714C1.28 40.0002 0 38.7202 0 37.1431V5.71456C0 4.13742 1.28 2.85742 2.85714 2.85742Z" fill="#C4CBD2"/>
<path d="M2.85714 17.0634V25.6348H0V28.4919H2.85714V37.1433H37.1428V6.28627C37.1428 5.96627 36.8913 5.71484 36.5713 5.71484H2.85714V14.2063H0V17.0634H2.85714ZM5.71427 8.57198H34.2856V34.2862H5.71427V8.57198Z" fill="#091440"/>
<path d="M34.2854 42.8574L37.1426 42.8574L37.1426 40.0003L34.2854 40.0003L34.2854 42.8574Z" fill="#091440"/>
<path d="M2.85771 42.8574L5.71484 42.8574L5.71484 40.0003L2.85771 40.0003L2.85771 42.8574Z" fill="#091440"/>
<path d="M27.0741 14.3554C25.1198 12.4011 22.5598 11.4297 19.9998 11.4297C17.4398 11.4297 14.8798 12.4011 12.9256 14.3554C9.017 18.264 9.017 24.5954 12.9256 28.4925C14.8798 30.4468 17.4398 31.4182 19.9998 31.4182C22.5598 31.4182 25.1198 30.4468 27.0741 28.4925C30.9712 24.5954 30.9712 18.264 27.0741 14.3554ZM23.9427 15.464L19.9998 19.4068L16.057 15.464C17.2113 14.6983 18.5713 14.2868 19.9998 14.2868C21.4284 14.2868 22.777 14.6983 23.9427 15.464ZM12.857 21.4297C12.857 20.0125 13.2684 18.6525 14.0341 17.4868L17.977 21.4297L14.0341 25.3725C13.2684 24.2068 12.857 22.8468 12.857 21.4297ZM16.057 27.3954L19.9998 23.4525L23.9427 27.3954C22.7884 28.1611 21.4284 28.5725 19.9998 28.5725C18.5713 28.5725 17.2227 28.1611 16.057 27.3954ZM25.9655 25.3725L22.0227 21.4297L25.9655 17.4868C26.7312 18.6411 27.1427 20.0011 27.1427 21.4297C27.1427 22.8468 26.7312 24.2068 25.9655 25.3725Z" fill="#091440"/>
</svg>
