<svg width="230" height="30" viewBox="0 0 230 30" fill="none" xmlns="http://www.w3.org/2000/svg">
<path d="M23.4526 22.4195L22.6836 22.6747L23.2565 23.2477L28.4781 28.4692H23.9179L14.9046 19.4559H19.8957C21.3636 19.4559 22.7713 18.8728 23.8092 17.8349C24.8472 16.7969 25.4303 15.3892 25.4303 13.9213C25.4303 12.4535 24.8472 11.0457 23.8092 10.0078C22.7713 8.96985 21.3636 8.38674 19.8957 8.38674H18.0435L14.0806 4.44165H19.6607H19.6607C22.1876 4.44159 24.612 5.44101 26.4047 7.22181C28.1975 9.00261 29.2131 11.4202 29.2299 13.947L29.23 13.9581L29.2306 13.9692C29.3247 15.8159 28.8105 17.6424 27.7668 19.1688C26.7231 20.6952 25.2076 21.8372 23.4526 22.4195Z" fill="#EDEFF1" stroke="#EDEFF1" stroke-linecap="round"/>
<path d="M6.29171 10.4801L7.0611 10.2251L6.48796 9.65199L1.27762 4.44165H5.82758L14.8901 13.4437H9.84882C8.38095 13.4437 6.9732 14.0268 5.93527 15.0648C4.89733 16.1027 4.31422 17.5104 4.31422 18.9783C4.31422 20.4462 4.89733 21.8539 5.93527 22.8919C6.9732 23.9298 8.38095 24.5129 9.84882 24.5129H11.6555L15.6678 28.5251H10.0838C7.55503 28.5252 5.12909 27.5243 3.33604 25.7412C1.54299 23.9581 0.528615 21.5378 0.514567 19.0091L0.514495 18.9962L0.513761 18.9834C0.407765 17.1279 0.916404 15.2892 1.96093 13.752C3.00546 12.2148 4.5276 11.0649 6.29171 10.4801Z" fill="#EDEFF1" stroke="#EDEFF1" stroke-linecap="round"/>
<path d="M59.992 24H64.336C68.992 24 71.824 21.288 71.824 16.08C71.824 10.896 68.992 8.304 64.192 8.304H59.992V24ZM62.776 21.744V10.56H64C67.168 10.56 68.968 12.24 68.968 16.08C68.968 19.944 67.168 21.744 64 21.744H62.776ZM79.792 24.288C81.28 24.288 82.696 23.76 83.824 23.016L82.888 21.288C82.024 21.84 81.16 22.152 80.152 22.152C78.256 22.152 76.912 20.952 76.672 18.864H84.16C84.232 18.576 84.28 18.048 84.28 17.52C84.28 14.232 82.6 11.928 79.408 11.928C76.648 11.928 73.984 14.28 73.984 18.12C73.984 22.008 76.528 24.288 79.792 24.288ZM76.648 16.992C76.888 15.096 78.088 14.064 79.48 14.064C81.088 14.064 81.88 15.168 81.88 16.992H76.648ZM91.8361 24.288C93.1801 24.288 94.5721 23.808 95.6761 22.848L94.5481 21.024C93.8761 21.576 93.0361 22.032 92.1241 22.032C90.2761 22.032 88.9801 20.472 88.9801 18.12C88.9801 15.744 90.3001 14.184 92.1961 14.184C92.9401 14.184 93.5401 14.496 94.1641 15.048L95.5081 13.248C94.6441 12.504 93.5641 11.928 92.0521 11.928C88.9081 11.928 86.1481 14.184 86.1481 18.12C86.1481 22.032 88.6201 24.288 91.8361 24.288ZM98.002 24H100.762V16.8C101.482 15.024 102.61 14.376 103.546 14.376C104.05 14.376 104.362 14.448 104.77 14.568L105.25 12.168C104.89 12 104.506 11.928 103.906 11.928C102.658 11.928 101.41 12.768 100.57 14.304H100.474L100.282 12.216H98.002V24ZM111.761 24.288C113.249 24.288 114.665 23.76 115.793 23.016L114.857 21.288C113.993 21.84 113.129 22.152 112.121 22.152C110.225 22.152 108.881 20.952 108.641 18.864H116.129C116.201 18.576 116.249 18.048 116.249 17.52C116.249 14.232 114.569 11.928 111.377 11.928C108.617 11.928 105.953 14.28 105.953 18.12C105.953 22.008 108.497 24.288 111.761 24.288ZM108.617 16.992C108.857 15.096 110.057 14.064 111.449 14.064C113.057 14.064 113.849 15.168 113.849 16.992H108.617ZM123.013 24.288C124.285 24.288 125.485 23.592 126.349 22.728H126.445L126.637 24H128.917V7.056H126.157V11.328L126.253 13.224C125.341 12.432 124.501 11.928 123.157 11.928C120.589 11.928 118.165 14.28 118.165 18.12C118.165 22.008 120.061 24.288 123.013 24.288ZM123.685 22.008C121.981 22.008 121.021 20.64 121.021 18.096C121.021 15.624 122.245 14.208 123.757 14.208C124.549 14.208 125.341 14.472 126.157 15.192V20.688C125.365 21.6 124.597 22.008 123.685 22.008ZM143.572 24.288C147.676 24.288 150.508 21.168 150.508 16.08C150.508 11.016 147.676 8.016 143.572 8.016C139.492 8.016 136.66 11.016 136.66 16.08C136.66 21.168 139.492 24.288 143.572 24.288ZM143.572 21.864C141.1 21.864 139.516 19.608 139.516 16.08C139.516 12.576 141.1 10.44 143.572 10.44C146.044 10.44 147.628 12.576 147.628 16.08C147.628 19.608 146.044 21.864 143.572 21.864ZM153.408 24H156.168V15.768C157.152 14.808 157.824 14.304 158.856 14.304C160.152 14.304 160.704 15.024 160.704 16.968V24H163.464V16.608C163.464 13.632 162.36 11.928 159.84 11.928C158.232 11.928 157.032 12.768 155.976 13.8H155.88L155.688 12.216H153.408V24ZM178.147 24.288C180.163 24.288 181.819 23.472 183.091 22.008L181.603 20.256C180.715 21.216 179.635 21.864 178.243 21.864C175.603 21.864 173.923 19.704 173.923 16.128C173.923 12.6 175.747 10.44 178.315 10.44C179.539 10.44 180.475 10.992 181.291 11.808L182.779 10.008C181.795 8.952 180.211 8.016 178.243 8.016C174.283 8.016 171.067 11.064 171.067 16.2C171.067 21.408 174.187 24.288 178.147 24.288ZM185.471 24H188.231V15.768C189.215 14.808 189.887 14.304 190.919 14.304C192.215 14.304 192.767 15.024 192.767 16.968V24H195.527V16.608C195.527 13.632 194.423 11.928 191.903 11.928C190.295 11.928 189.119 12.768 188.135 13.704L188.231 11.424V7.056H185.471V24ZM201.71 24.288C203.102 24.288 204.302 23.592 205.358 22.704H205.454L205.646 24H207.926V17.016C207.926 13.728 206.462 11.928 203.534 11.928C201.662 11.928 199.982 12.648 198.686 13.464L199.694 15.312C200.75 14.688 201.854 14.16 203.006 14.16C204.614 14.16 205.118 15.216 205.166 16.464C200.318 16.992 198.23 18.312 198.23 20.832C198.23 22.896 199.646 24.288 201.71 24.288ZM202.598 22.128C201.614 22.128 200.894 21.672 200.894 20.616C200.894 19.44 201.95 18.6 205.166 18.192V20.832C204.278 21.648 203.558 22.128 202.598 22.128ZM211.229 24H213.989V12.216H211.229V24ZM212.621 10.152C213.605 10.152 214.325 9.504 214.325 8.592C214.325 7.656 213.605 7.008 212.621 7.008C211.637 7.008 210.917 7.656 210.917 8.592C210.917 9.504 211.637 10.152 212.621 10.152ZM217.51 24H220.27V15.768C221.254 14.808 221.926 14.304 222.958 14.304C224.254 14.304 224.806 15.024 224.806 16.968V24H227.566V16.608C227.566 13.632 226.462 11.928 223.942 11.928C222.334 11.928 221.134 12.768 220.078 13.8H219.982L219.79 12.216H217.51V24Z" fill="#EDEFF1"/>
</svg>
