<svg width="23" height="19" viewBox="0 0 23 19" fill="none" xmlns="http://www.w3.org/2000/svg">
<path d="M22.2235 2.24684C21.3728 2.56584 20.5221 2.88483 19.5651 2.99117C20.5221 2.4595 21.2665 1.50251 21.5855 0.439188C20.7348 0.97085 19.6715 1.39618 18.7145 1.50251C17.0132 -0.305138 14.0359 -0.411471 12.2282 1.28985C11.2712 2.1405 10.8459 3.31016 10.8459 4.58615C10.8459 4.90515 10.8459 5.33048 10.9522 5.64947C7.2306 5.43681 3.82796 3.73549 1.48865 0.864519C0.318997 2.99117 0.850659 5.64947 2.87097 6.92546C2.12665 6.92546 1.48865 6.7128 0.850659 6.3938V6.50013C0.850659 8.62678 2.33931 10.5408 4.57229 10.9661C4.14696 11.0724 3.82796 11.0724 3.40263 11.0724C3.08364 11.0724 2.87097 11.0724 2.55198 10.9661C3.18997 12.7737 4.89129 14.0497 6.80527 14.1561C5.10395 15.5384 3.18997 16.2827 1.06332 16.2827C0.744326 16.2827 0.318997 16.2827 0 16.1764C2.12665 17.5587 4.57229 18.1967 7.01793 18.1967C14.1422 18.1967 19.9905 12.4547 19.9905 5.33048C19.9905 5.22414 19.9905 5.22414 19.9905 5.11781C19.9905 4.90515 19.9905 4.69248 19.9905 4.47982C20.8411 4.05449 21.6918 3.20383 22.2235 2.24684Z" fill="#8997A5"/>
</svg>
