<svg width="22" height="22" viewBox="0 0 22 22" fill="none" xmlns="http://www.w3.org/2000/svg">
<path d="M14.3923 6.91156C13.4353 6.91156 12.5846 7.23045 11.8403 7.86845C11.3086 7.23045 10.458 6.80523 9.60732 6.91156C8.75666 6.91156 7.906 7.12417 7.268 7.65583V6.91156H5.14136V14.8865H7.268V8.93177C7.587 8.61277 8.11866 8.29393 8.65032 8.29393C9.71365 8.29393 9.81998 9.46343 9.81998 9.46343V14.8865H12.053V8.93177C12.372 8.61277 12.9036 8.40026 13.3289 8.29393C14.3923 8.29393 14.4986 9.46343 14.4986 9.46343V14.8865H16.8379V8.40011C16.8379 8.40011 16.6252 6.91156 14.3923 6.91156Z" fill="#8997A5"/>
<path d="M0.462646 0.638128V21.3729H3.01462V20.3096H1.6323V1.27597H3.01462V0.212643H0.462646V0.638128Z" fill="#8997A5"/>
<path d="M18.9644 0.10649V1.16981H20.3467V20.2032H18.9644V21.2665H21.5163V5.34058e-05H18.9644V0.10649Z" fill="#8997A5"/>
</svg>
