<svg width="20" height="22" viewBox="0 0 20 22" fill="none" xmlns="http://www.w3.org/2000/svg">
<path d="M19.112 2.37145V21.4048C16.4537 19.0655 17.3043 19.8099 14.2207 16.9389L14.4333 18.853H2.73678C1.56713 18.853 0.503804 17.8959 0.610136 16.6199V2.26501C0.610136 1.09536 1.56713 0.031929 2.73678 0.031929H16.9853C18.155 0.138261 19.112 1.09546 19.112 2.37145Z" fill="#8997A5"/>
<path d="M14.5397 6.19922C13.6891 5.56123 12.6258 5.1359 11.5624 5.1359L11.4561 5.34851C12.4131 5.56118 13.3701 6.09289 14.1144 6.73088C11.6688 5.4549 8.69147 5.24218 6.13949 6.41183C5.71416 6.6245 5.5015 6.73088 5.5015 6.73088C6.35216 6.09289 7.30915 5.56118 8.26614 5.34851L8.15981 5.24233C7.09648 5.34867 6.03316 5.66766 5.1825 6.30566C4.22551 8.21964 3.69385 10.3463 3.69385 12.473C4.43817 13.5363 5.60783 14.1743 6.88382 14.068C6.88382 14.068 7.30915 13.6426 7.62814 13.2173C6.88382 13.0046 6.24582 12.5793 5.82049 11.9413C5.92683 12.0477 6.24582 12.1538 6.24582 12.2601C8.26614 13.3234 10.7118 13.5363 12.8384 12.6856C13.2638 12.4729 13.6891 12.2602 14.0081 12.0475C13.5828 12.6855 12.8384 13.1108 12.0941 13.3234C12.4131 13.7488 12.8384 14.1741 12.8384 14.1741C14.1144 14.1741 15.3904 13.6425 16.1347 12.5792C16.0284 10.2398 15.6031 8.1132 14.5397 6.19922ZM7.94714 11.4097C7.30915 11.3033 6.77748 10.7715 6.88382 10.1335C6.88382 9.6018 7.41548 9.07014 7.94714 9.07014C8.58513 9.17647 9.1168 9.70834 9.01046 10.3463C8.90413 10.878 8.4788 11.4097 7.94714 11.4097ZM11.7751 11.4097C11.1371 11.516 10.4991 10.9843 10.4991 10.3463C10.3928 9.70834 10.9244 9.07014 11.5624 9.07014C12.2004 9.07014 12.8384 9.49547 12.8384 10.1335V10.2399C12.9448 10.8779 12.4131 11.4097 11.7751 11.4097Z" fill="#091440"/>
</svg>
